HIERARCHY
ROOT Hips
{
	OFFSET 0.000000 1.471914 24.280096
	CHANNELS 6 Xposition Yposition Zposition Xrotation Yrotation Zrotation
	JOINT Spine
	{
		OFFSET 0.000000 0.900110 1.860670
		CHANNELS 6 Xposition Yposition Zposition Xrotation Yrotation Zrotation
		JOINT Spine1
		{
			OFFSET 0.000000 0.400320 2.270309
			CHANNELS 6 Xposition Yposition Zposition Xrotation Yrotation Zrotation
			JOINT Spine2
			{
				OFFSET 0.000000 0.200920 2.296560
				CHANNELS 6 Xposition Yposition Zposition Xrotation Yrotation Zrotation
				JOINT Spine3
				{
					OFFSET 0.000000 0.000000 2.305330
					CHANNELS 6 Xposition Yposition Zposition Xrotation Yrotation Zrotation
					JOINT Neck
					{
						OFFSET 0.000000 -0.864490 6.051487
						CHANNELS 6 Xposition Yposition Zposition Xrotation Yrotation Zrotation
						JOINT Head
						{
							OFFSET 0.000000 -0.550429 3.121674
							CHANNELS 6 Xposition Yposition Zposition Xrotation Yrotation Zrotation
							End Site
							{
								OFFSET 0.000000 0.000000 3.731750
							}
						}
					}
					JOINT RightShoulder
					{
						OFFSET -0.788280 -1.313800 4.256718
						CHANNELS 6 Xposition Yposition Zposition Xrotation Yrotation Zrotation
						JOINT RightArm
						{
							OFFSET -3.915130 0.000000 0.000000
							CHANNELS 6 Xposition Yposition Zposition Xrotation Yrotation Zrotation
							JOINT RightForeArm
							{
								OFFSET -6.914910 0.000000 0.000000
								CHANNELS 6 Xposition Yposition Zposition Xrotation Yrotation Zrotation
								JOINT RightHand
								{
									OFFSET -6.096219 0.000000 0.000000
									CHANNELS 6 Xposition Yposition Zposition Xrotation Yrotation Zrotation
									JOINT RightHandEnd
									{
										OFFSET -1.749950 0.000000 0.000000
										CHANNELS 6 Xposition Yposition Zposition Xrotation Yrotation Zrotation
										End Site
										{
											OFFSET -1.749950 0.000000 0.000000
										}
									}
									JOINT RightHandThumb1
									{
										OFFSET -0.699980 -1.166630 -0.466648
										CHANNELS 6 Xposition Yposition Zposition Xrotation Yrotation Zrotation
										End Site
										{
											OFFSET -1.690319 -0.452920 0.000000
										}
									}
								}
							}
						}
					}
					JOINT LeftShoulder
					{
						OFFSET 0.788280 -1.313800 4.256718
						CHANNELS 6 Xposition Yposition Zposition Xrotation Yrotation Zrotation
						JOINT LeftArm
						{
							OFFSET 3.915130 0.000000 0.000000
							CHANNELS 6 Xposition Yposition Zposition Xrotation Yrotation Zrotation
							JOINT LeftForeArm
							{
								OFFSET 6.914910 0.000000 0.000000
								CHANNELS 6 Xposition Yposition Zposition Xrotation Yrotation Zrotation
								JOINT LeftHand
								{
									OFFSET 6.096219 0.000000 0.000000
									CHANNELS 6 Xposition Yposition Zposition Xrotation Yrotation Zrotation
									JOINT LeftHandEnd
									{
										OFFSET 1.749950 0.000000 0.000000
										CHANNELS 6 Xposition Yposition Zposition Xrotation Yrotation Zrotation
										End Site
										{
											OFFSET 1.749950 0.000000 0.000000
										}
									}
									JOINT LeftHandThumb1
									{
										OFFSET 0.699980 -1.166630 -0.466648
										CHANNELS 6 Xposition Yposition Zposition Xrotation Yrotation Zrotation
										End Site
										{
											OFFSET 1.690319 -0.452920 0.000000
										}
									}
								}
							}
						}
					}
				}
			}
		}
	}
	JOINT RightUpLeg
	{
		OFFSET -2.338570 -0.252550 -0.551512
		CHANNELS 6 Xposition Yposition Zposition Xrotation Yrotation Zrotation
		JOINT RightLeg
		{
			OFFSET 0.000000 0.000000 -10.744959
			CHANNELS 6 Xposition Yposition Zposition Xrotation Yrotation Zrotation
			JOINT RightFoot
			{
				OFFSET 0.000000 -0.000001 -10.930849
				CHANNELS 6 Xposition Yposition Zposition Xrotation Yrotation Zrotation
				JOINT RightToeBase
				{
					OFFSET 0.000000 -4.087269 -1.487650
					CHANNELS 6 Xposition Yposition Zposition Xrotation Yrotation Zrotation
					End Site
					{
						OFFSET 0.000000 -1.891870 0.000000
					}
				}
			}
		}
	}
	JOINT LeftUpLeg
	{
		OFFSET 2.338570 -0.252550 -0.551512
		CHANNELS 6 Xposition Yposition Zposition Xrotation Yrotation Zrotation
		JOINT LeftLeg
		{
			OFFSET 0.000000 0.000000 -10.744959
			CHANNELS 6 Xposition Yposition Zposition Xrotation Yrotation Zrotation
			JOINT LeftFoot
			{
				OFFSET 0.000000 -0.000001 -10.930849
				CHANNELS 6 Xposition Yposition Zposition Xrotation Yrotation Zrotation
				JOINT LeftToeBase
				{
					OFFSET 0.000000 -4.087269 -1.487650
					CHANNELS 6 Xposition Yposition Zposition Xrotation Yrotation Zrotation
					End Site
					{
						OFFSET 0.000000 -1.891870 0.000000
					}
				}
			}
		}
	}
}
MOTION
Frames: 6
Frame Time: 0.041667
0.000028 26.693123 39.744915 -2.586888 3.538311 -37.427155 -0.000017 0.900090 1.860672 16.856784 -6.772423 -1.153273 0.000013 0.400273 2.270325 -0.000003 -0.000001 0.000013 0.000018 0.200896 2.296547 0.000004 -0.000001 0.000000 0.000028 0.000008 2.305329 -0.000042 0.000010 -7.385968 -0.000015 -0.864456 6.051426 9.771616 2.910984 -180.225702 0.000009 -0.550426 3.121704 -0.000009 0.000003 -0.000002 -0.788271 -1.313712 4.256807 -224.544013 54.160327 32.412103 -3.915119 -0.000025 -0.000031 -0.000000 0.000000 0.000001 -6.914930 -0.000007 -0.000006 -0.000025 -0.000031 -80.185205 -6.096185 0.000004 0.000029 -0.000100 -0.000070 -0.000054 -1.749891 -0.000035 0.000048 -0.000000 0.000004 -0.000000 -0.699967 -1.166611 -0.466660 -0.000008 -0.000004 0.000003 0.788267 -1.313762 4.256755 -212.983549 -66.378005 -27.423179 3.915173 -0.000001 -0.000042 0.000001 0.000006 0.000005 6.914941 -0.000049 -0.000003 -0.000023 0.000039 70.291164 6.096243 0.000095 -0.000033 -0.000044 0.000052 -0.000005 1.749986 0.000009 0.000033 0.000000 -0.000008 -0.000002 0.699945 -1.166626 -0.466632 0.000005 -0.000000 -0.000021 -2.338570 -0.252533 -0.551474 8.133753 11.519463 -0.556491 0.000012 -0.000034 -10.744965 18.603731 -9.047141 2.439655 -0.000014 0.000110 -10.930823 -0.000022 -0.000002 -0.000003 0.000009 -4.087252 -1.487642 0.000002 0.000002 0.000002 2.338568 -0.252536 -0.551468 16.614094 6.146151 -1.123457 0.000003 -0.000032 -10.744910 13.731082 -0.862113 0.564251 -0.000013 0.000007 -10.930868 -0.000022 0.000002 0.000002 -0.000015 -4.087232 -1.487653 -0.000004 -0.000001 0.000004 
0.000030 26.693123 39.744923 -2.415133 3.759823 -37.937678 -0.000016 0.900095 1.860666 16.912727 -7.118574 -1.221229 0.000016 0.400272 2.270329 -0.000002 -0.000002 0.000010 0.000016 0.200900 2.296545 0.000002 -0.000002 -0.000003 0.000028 0.000011 2.305330 -0.000039 0.000013 -7.319909 -0.000014 -0.864465 6.051420 9.518152 3.055014 -180.124041 0.000007 -0.550430 3.121704 -0.000007 0.000002 -0.000004 -0.788276 -1.313721 4.256800 -222.695477 54.621638 29.931388 -3.915112 -0.000022 -0.000034 0.000002 -0.000002 0.000001 -6.914932 -0.000007 0.000002 -0.000024 -0.000035 -81.526354 -6.096181 0.000004 0.000025 -0.000104 -0.000070 -0.000045 -1.749887 -0.000041 0.000048 -0.000004 0.000001 -0.000002 -0.699964 -1.166620 -0.466659 -0.000010 -0.000004 0.000003 0.788259 -1.313768 4.256753 -213.423795 -67.126314 -28.002213 3.915177 -0.000005 -0.000042 0.000006 0.000003 0.000006 6.914941 -0.000055 -0.000003 -0.000030 0.000045 74.433735 6.096239 0.000091 -0.000031 -0.000043 0.000048 -0.000003 1.749981 0.000017 0.000033 0.000003 -0.000005 0.000003 0.699945 -1.166617 -0.466633 0.000005 0.000002 -0.000014 -2.338568 -0.252532 -0.551483 7.986322 11.071417 -0.574909 0.000010 -0.000038 -10.744962 18.507591 -8.575301 2.220499 -0.000015 0.000105 -10.930820 -0.000022 -0.000001 0.000005 0.000012 -4.087248 -1.487641 0.000002 0.000004 -0.000003 2.338570 -0.252536 -0.551476 16.526770 6.283879 -1.177485 0.000001 -0.000029 -10.744904 13.742002 -1.320648 0.548966 -0.000009 0.000007 -10.930871 -0.000019 0.000002 -0.000005 -0.000016 -4.087225 -1.487649 -0.000002 0.000001 -0.000001 
0.000039 26.693129 39.744926 -2.723840 4.076289 -38.522923 -0.000011 0.900091 1.860662 17.563000 -7.476950 -1.173158 0.000017 0.400272 2.270319 -0.000003 -0.000001 0.000010 0.000017 0.200898 2.296547 0.000000 -0.000002 -0.000004 0.000026 0.000013 2.305341 -0.000038 0.000013 -6.922574 -0.000011 -0.864464 6.051421 9.390598 3.068747 -179.573883 0.000006 -0.550424 3.121704 -0.000005 0.000003 -0.000006 -0.788271 -1.313722 4.256810 -221.999508 53.739187 28.463401 -3.915116 -0.000023 -0.000030 -0.000001 -0.000000 0.000001 -6.914932 -0.000007 -0.000002 -0.000020 -0.000031 -81.492708 -6.096185 0.000009 0.000025 -0.000102 -0.000070 -0.000047 -1.749887 -0.000039 0.000046 -0.000000 -0.000003 -0.000000 -0.699967 -1.166617 -0.466648 -0.000007 -0.000007 0.000004 0.788262 -1.313770 4.256751 -217.772795 -66.832534 -32.214475 3.915167 -0.000002 -0.000042 0.000008 0.000001 0.000005 6.914933 -0.000050 -0.000005 -0.000031 0.000046 75.769727 6.096241 0.000101 -0.000034 -0.000046 0.000049 -0.000008 1.749983 0.000013 0.000032 0.000001 -0.000009 -0.000002 0.699943 -1.166619 -0.466630 0.000005 -0.000001 -0.000018 -2.338566 -0.252532 -0.551481 8.585781 10.975921 -0.572062 0.000009 -0.000028 -10.744965 17.813357 -8.292526 2.204157 -0.000012 0.000109 -10.930827 -0.000019 0.000003 -0.000001 0.000007 -4.087248 -1.487642 0.000002 0.000002 -0.000004 2.338573 -0.252537 -0.551472 16.635090 6.513532 -1.098100 0.000002 -0.000030 -10.744905 13.340521 -1.603034 0.654265 -0.000009 0.000006 -10.930871 -0.000020 0.000001 -0.000003 -0.000013 -4.087223 -1.487651 0.000001 0.000000 0.000000 
0.000054 26.693127 39.744934 -2.852775 3.766197 -38.022881 -0.000016 0.900091 1.860669 17.562981 -7.340549 -1.323609 0.000014 0.400274 2.270319 -0.000002 -0.000002 0.000010 0.000017 0.200899 2.296553 0.000002 -0.000001 -0.000003 0.000030 0.000008 2.305341 -0.000039 0.000016 -7.860535 -0.000013 -0.864470 6.051432 8.707375 2.836789 -179.331521 0.000008 -0.550429 3.121696 -0.000006 0.000003 -0.000001 -0.788272 -1.313725 4.256819 -222.237813 53.942768 28.654317 -3.915115 -0.000024 -0.000019 0.000000 -0.000002 0.000001 -6.914930 -0.000009 -0.000001 -0.000027 -0.000033 -82.487751 -6.096182 0.000011 0.000030 -0.000097 -0.000071 -0.000048 -1.749886 -0.000032 0.000045 -0.000001 -0.000001 -0.000001 -0.699962 -1.166612 -0.466663 -0.000012 -0.000008 0.000004 0.788264 -1.313776 4.256761 -212.393584 -68.096528 -26.345580 3.915173 -0.000001 -0.000042 0.000005 0.000004 0.000005 6.914938 -0.000052 0.000002 -0.000038 0.000050 79.191945 6.096240 0.000097 -0.000036 -0.000044 0.000046 -0.000003 1.749981 0.000016 0.000029 -0.000000 -0.000011 -0.000003 0.699942 -1.166618 -0.466633 0.000008 -0.000006 -0.000018 -2.338569 -0.252535 -0.551473 8.441415 11.154886 -0.633490 0.000008 -0.000036 -10.744968 17.764706 -8.259130 2.106923 -0.000019 0.000110 -10.930824 -0.000022 -0.000001 -0.000000 0.000011 -4.087248 -1.487641 0.000005 0.000002 -0.000004 2.338570 -0.252540 -0.551469 16.456492 6.555543 -1.223882 0.000002 -0.000031 -10.744902 13.297834 -1.865477 0.553849 -0.000011 0.000002 -10.930869 -0.000022 0.000002 0.000000 -0.000016 -4.087234 -1.487647 0.000003 0.000002 -0.000000 
0.000044 26.693136 39.744953 -2.024941 3.769406 -38.755842 -0.000016 0.900090 1.860663 16.975185 -7.741162 -0.998321 0.000016 0.400269 2.270327 -0.000002 -0.000003 0.000009 0.000015 0.200898 2.296545 0.000003 -0.000001 0.000002 0.000029 0.000008 2.305333 -0.000039 0.000012 -7.929030 -0.000016 -0.864464 6.051430 8.340897 3.407438 -180.675319 0.000007 -0.550427 3.121700 -0.000007 0.000002 -0.000002 -0.788273 -1.313719 4.256816 -220.524310 55.041940 25.630114 -3.915112 -0.000022 -0.000031 -0.000001 -0.000003 -0.000002 -6.914927 -0.000006 0.000001 -0.000025 -0.000039 -83.910336 -6.096184 0.000005 0.000033 -0.000099 -0.000069 -0.000049 -1.749885 -0.000040 0.000048 -0.000001 -0.000001 -0.000001 -0.699961 -1.166613 -0.466656 -0.000012 -0.000009 0.000007 0.788257 -1.313770 4.256765 -199.758130 -69.971408 -14.080859 3.915173 0.000002 -0.000035 0.000008 0.000003 0.000007 6.914930 -0.000055 -0.000003 -0.000044 0.000048 83.212823 6.096235 0.000090 -0.000028 -0.000045 0.000045 -0.000003 1.749983 0.000007 0.000036 -0.000001 -0.000002 -0.000004 0.699940 -1.166624 -0.466627 0.000003 0.000001 -0.000019 -2.338573 -0.252532 -0.551480 7.561840 10.751843 -0.443253 0.000009 -0.000031 -10.744966 17.367593 -8.352087 2.216322 -0.000014 0.000109 -10.930824 -0.000026 -0.000001 0.000003 0.000011 -4.087245 -1.487638 0.000003 0.000003 -0.000002 2.338570 -0.252539 -0.551471 15.647074 6.165201 -0.911697 -0.000001 -0.000031 -10.744905 13.616360 -1.884973 0.684983 -0.000011 0.000004 -10.930868 -0.000019 0.000002 -0.000003 -0.000017 -4.087224 -1.487649 0.000004 0.000002 0.000003 
-0.000039 26.693153 39.744961 -3.895634 2.359549 -38.319837 -0.000011 0.900092 1.860673 18.223672 -3.567022 -1.328666 0.000016 0.400272 2.270323 -0.000002 -0.000002 0.000007 0.000018 0.200896 2.296555 0.000004 -0.000000 0.000002 0.000028 0.000012 2.305341 -0.000038 0.000012 -7.191474 -0.000015 -0.864462 6.051429 8.298489 0.175276 -183.046379 0.000008 -0.550429 3.121704 -0.000004 0.000004 -0.000004 -0.788272 -1.313720 4.256820 -215.982821 57.494408 21.672860 -3.915110 -0.000021 -0.000027 0.000001 -0.000000 0.000002 -6.914933 -0.000008 0.000005 -0.000025 -0.000034 -85.084384 -6.096181 -0.000002 0.000027 -0.000104 -0.000073 -0.000050 -1.749885 -0.000036 0.000040 -0.000000 -0.000000 -0.000004 -0.699962 -1.166611 -0.466664 -0.000010 -0.000005 0.000002 0.788266 -1.313767 4.256773 -191.341698 -69.276136 -6.404241 3.915179 0.000001 -0.000031 0.000003 0.000001 0.000005 6.914936 -0.000054 -0.000003 -0.000039 0.000055 83.403898 6.096240 0.000100 -0.000030 -0.000042 0.000050 -0.000004 1.749987 0.000009 0.000036 -0.000002 -0.000008 -0.000003 0.699946 -1.166625 -0.466628 0.000001 -0.000009 -0.000018 -2.338566 -0.252532 -0.551474 8.934302 13.225077 -0.660316 0.000013 -0.000030 -10.744965 16.670333 -8.686461 2.594904 -0.000014 0.000112 -10.930822 -0.000022 -0.000001 -0.000001 0.000009 -4.087249 -1.487641 0.000006 0.000005 0.000000 2.338572 -0.252537 -0.551467 15.975249 8.268446 -1.166666 0.000004 -0.000029 -10.744908 14.491233 -2.234175 1.049343 -0.000011 0.000011 -10.930868 -0.000019 0.000001 -0.000002 -0.000011 -4.087229 -1.487652 0.000005 0.000000 -0.000002 
